<?xml version="1.0" encoding="UTF-8"?>
<svg id="Calque_1" xmlns="http://www.w3.org/2000/svg" version="1.1" viewBox="22 23 211 209">
  <!-- Generator: Adobe Illustrator 30.8.0, SVG Export Plug-In . SVG Version: 2.1.4 Build 28)  -->
  <defs>
    <style>
      .st0 {
        fill: #e52926;
      }

      .st1 {
        fill: #010101;
      }

      .st2 {
        fill: #e52924;
      }

      .st3 {
        fill: #e52824;
      }

      .st4 {
        fill: #e62a27;
      }

      .st5 {
        fill: #e52823;
      }

      .st6 {
        fill: #f8f9f4;
      }
    </style>
  </defs>
  <path class="st5" d="M222.07,228.6l-6.32.12c-1.45.03-2.81-.14-4.21-.46-3.01-.68-3.7-2.69-3.59-5.65l3.02.03c.07.78-.07,1.59.36,2.27.47.74,1.42,1.03,2.31,1.11,2.72.24,8.25.4,10.31-.49,1.18-.51,1.23-1.83,1.07-3.24-.19-1.7-2.22-1.66-4.14-1.72l-5.93-.18c-2.94-.09-6.43-.42-6.7-3.61-.23-2.65.06-5.08,2.78-6.02,1.11-.38,2.25-.62,3.44-.62h7.14c1.26,0,2.46.26,3.62.71,1.4.55,2.39,1.76,2.44,3.25l.05,1.55-2.95.05-.05-.89c-.09-1.58-1.62-2.03-3.31-2.12-2.58-.14-5.1-.19-7.66.13-.75.09-1.65.3-2.09.94-.56.82-.62,2.18-.13,3.04.42.75,1.42.95,2.22.97l6.94.16c2.84.06,6.38.19,7.21,3.08.39,1.36.34,2.78.04,4.16s-1.27,2.28-2.51,2.75c-1.06.4-2.14.67-3.34.7Z"/>
  <polygon class="st2" points="50.13 225.98 50.16 228.53 33.13 228.52 33.13 210.21 36.23 210.2 36.23 225.99 50.13 225.98"/>
  <g>
    <path class="st3" d="M167.04,218.88c2.55,1.01,2.94,3.12,2.61,5.72-.21,1.67-1.29,2.96-2.9,3.45-1.09.31-2.17.46-3.36.46h-14.04s0-18.31,0-18.31l14.31.03c1.08,0,2.05.16,3.02.51,1.14.46,1.97,1.3,2.27,2.51s.36,2.6-.13,3.8c-.32.79-1.03,1.21-1.76,1.83Z"/>
    <path class="st6" d="M166.6,222.03c.23,1.45.1,3.21-1.19,3.62-.74.27-1.48.33-2.29.34h-10.64s0-5.78,0-5.78h10.91c.74,0,1.4.09,2.07.32.61.27,1.03.82,1.14,1.5Z"/>
    <path class="st6" d="M165.89,216.46c-.31.81-1.13,1.05-1.89,1.21l-5.61.09-5.91-.02v-5.03s9.98,0,9.98,0c1.54,0,3.25.14,3.51,1.49.14.7.19,1.53-.09,2.25Z"/>
  </g>
  <g>
    <polygon class="st5" points="105.65 224.43 92.32 224.42 90 228.54 86.54 228.52 97.09 210.21 100.85 210.19 111.49 228.51 107.99 228.53 105.65 224.43"/>
    <polygon class="st6" points="104.21 221.92 93.73 221.94 98.97 212.67 104.21 221.92"/>
  </g>
  <g>
    <polygon class="st1" points="204.62 59.24 229.59 77.05 215.33 77.12 184.79 55.28 177.89 55.29 177.88 77.1 168.79 77.09 168.79 26.03 177.9 26.02 177.89 47.2 184.4 47.18 215.11 26.05 229.38 26.04 192.95 50.92 204.62 59.24"/>
    <g>
      <rect class="st1" x="122.87" y="26.02" width="9.06" height="51.09"/>
      <polygon class="st1" points="82.02 26.03 92.26 26.03 75.03 57.09 64.02 77.1 53.44 77.1 34.69 43.35 25.1 26.04 35.59 26.04 46.15 45.19 58.77 67.93 66.93 53.2 82.02 26.03"/>
    </g>
  </g>
  <g>
    <path class="st1" d="M127.55,99.76l.26.12v7.2s-.27.16-.27.16H24.95s0-7.48,0-7.48h102.6Z"/>
    <polygon class="st4" points="127.54 107.24 127.55 99.76 229.63 99.77 229.63 107.24 127.54 107.24"/>
  </g>
  <g>
    <polygon class="st4" points="71.15 187.41 61.29 187.44 61.31 139.04 32.58 139.02 32.57 130.86 99.95 130.87 99.97 139.03 71.15 139.03 71.15 187.41"/>
    <path class="st0" d="M225.13,138.86c-1.36-2.48-3.33-4.37-5.85-5.63-4.31-2.17-9.75-2.82-14.63-2.82h-30.81c-4.98-.01-10.1.54-14.57,2.62-5.1,2.36-7.47,7.05-8.38,12.46-.4,2.42-.6,4.76-.6,7.24v12.24s.37,6.42.37,6.42c.28,2.27.8,4.4,1.65,6.52,2.23,5.58,6.76,8.15,12.51,9.26,3.08.59,6.08.82,9.25.82h29.89c5.05.01,10.8-.53,15.25-2.78,7.83-3.95,8.7-12.98,8.7-21.02v-11.73c0-4.53-.62-9.66-2.78-13.6ZM218.13,166.29c0,2.46-.29,4.76-.97,7.08-.66,2.22-2.05,3.99-4.21,4.91-1.43.6-2.94,1.01-4.51,1.13l-4.13.33h-30.6l-4.41-.36c-1.49-.13-2.9-.53-4.26-1.14-1.32-.59-2.47-1.47-3.2-2.73-.86-1.48-1.37-3.12-1.5-4.82l-.34-4.53v-13.56s.33-4.94.33-4.94c.1-1.52.51-2.98,1.21-4.33.96-1.85,2.66-3.04,4.66-3.65,2.2-.68,4.45-.98,6.82-.98l31.33-.02c2.07-.01,4,.19,5.99.6,1.86.37,3.61,1.1,4.95,2.42,2.41,2.39,2.85,6.91,2.85,10.37v14.22Z"/>
  </g>
</svg>